# xmcd
#
# Track frame offsets: 
#        150
#        14605
#        28156
#        40907
#        55318
#        68619
#        81936
#        95383
#        109451
#        123840
#        135780
#        148912
#        161054
#        172738
#        185941
#        196553
#        210458
#        225500
#
# Disc length: 3155 seconds
#
# Revision: 1
# Processed by: cddbd v1.5.2PL0 Copyright (c) Steve Scherf et al.
# Submitted via: ExactAudioCopy v0.95b2
#
DISCID=f30c5112
DTITLE=Sleepy John Estes - The Essential Sleepy John Estes Disc 2
DYEAR=2001
DGENRE=General Blues
TTITLE0=Street Car Blues
TTITLE1=Expressmann Blues with Yank Rachel
TTITLE2=New Someday Baby
TTITLE3=Government Money
TTITLE4=The Girl I Love, She Got Long Curly Hair
TTITLE5=Sweet Mama with Yank Rachel
TTITLE6=I Wanta Tear It All The Time
TTITLE7=Fire Department Blues with Martha Hardin
TTITLE8=Every Time My Heart Beats with TheDelta Boys
TTITLE9=Jack and Jill Blues
TTITLE10=Hobo Jungle Blues
TTITLE11=Easin' Back To Tennessee
TTITLE12=Clean Up At Home
TTITLE13=Jailhouse Blues
TTITLE14=The Time Is Drawing Near
TTITLE15=I Ain't Gonna Be Worried No More
TTITLE16=Who's Been Telling You Buddy Brown Blues
TTITLE17=Little Laura Blues
EXTD=william hale
EXTT0=
EXTT1=
EXTT2=
EXTT3=
EXTT4=
EXTT5=
EXTT6=
EXTT7=
EXTT8=
EXTT9=
EXTT10=
EXTT11=
EXTT12=
EXTT13=
EXTT14=
EXTT15=
EXTT16=
EXTT17=
PLAYORDER=
